<svg width="71" height="71" viewBox="0 0 71 71" fill="none" xmlns="http://www.w3.org/2000/svg">
<path d="M35.5 70C54.5538 70 70 54.5538 70 35.5C70 16.4462 54.5538 1 35.5 1C16.4462 1 1 16.4462 1 35.5C1 54.5538 16.4462 70 35.5 70Z" stroke="white"/>
<path d="M41.5571 55C49.5537 55 54.7295 50.6782 54.7295 44.1309C54.7295 39.188 50.5112 35.3838 45.4648 35.2544V35.0474C49.7866 34.5039 53.0474 31.269 53.0474 26.9731C53.0474 21.1504 48.5703 17.6567 40.936 17.6567H22.5879V55H41.5571ZM33.5605 25.1875H37.96C40.729 25.1875 42.3853 26.585 42.3853 28.8882C42.3853 31.1396 40.6255 32.6147 37.8047 32.6147H33.5605V25.1875ZM33.5605 47.4692V38.9033H38.3223C41.6089 38.9033 43.5757 40.4561 43.5757 43.1216C43.5757 45.9424 41.6348 47.4692 38.2446 47.4692H33.5605Z" fill="white"/>
</svg>
