<svg width="71" height="71" viewBox="0 0 71 71" fill="none" xmlns="http://www.w3.org/2000/svg">
<path d="M35.5 70C54.5538 70 70 54.5538 70 35.5C70 16.4462 54.5538 1 35.5 1C16.4462 1 1 16.4462 1 35.5C1 54.5538 16.4462 70 35.5 70Z" stroke="white"/>
<path fill-rule="evenodd" clip-rule="evenodd" d="M19.375 52H51.625C54.5935 52 57 49.4717 57 46.3529V25.6471C57 22.5283 54.5935 20 51.625 20H19.375C16.4065 20 14 22.5283 14 25.6471V33.1765C14 34.2161 14.8022 35.0588 15.7917 35.0588C16.7812 35.0588 17.5833 34.2161 17.5833 33.1765V25.6471C17.5833 24.6075 18.3855 23.7647 19.375 23.7647H51.625C52.6145 23.7647 53.4167 24.6075 53.4167 25.6471V46.3529C53.4167 47.3925 52.6145 48.2353 51.625 48.2353H19.375C18.3855 48.2353 17.5833 47.3925 17.5833 46.3529V45.8259C17.5825 45.3861 17.7283 44.9598 17.9954 44.6212L25.0008 35.7929L31.3433 41.12C32.7691 42.313 34.8201 42.1915 36.1092 40.8376L39.2088 37.5812L46.9129 44.0565C46.9413 44.0819 46.9704 44.1064 47.0002 44.13C47.7914 44.7544 48.9145 44.5868 49.5089 43.7556C50.1032 42.9244 49.9436 41.7444 49.1525 41.12L41.4483 34.6447C40.0226 33.4517 37.9716 33.5732 36.6825 34.9271L33.5829 38.1835L27.2404 32.8565C25.7163 31.5701 23.4921 31.8046 22.2417 33.3835L15.2363 42.2118C14.435 43.2277 13.9976 44.5064 14 45.8259V46.3529C14 49.4717 16.4065 52 19.375 52ZM45 30C45 28.3431 46.1193 27 47.5 27C48.8807 27 50 28.3431 50 30C50 31.6569 48.8807 33 47.5 33C46.1193 33 45 31.6569 45 30Z" fill="white"/>
</svg>
