<svg width="71" height="71" viewBox="0 0 71 71" fill="none" xmlns="http://www.w3.org/2000/svg">
<path d="M35.5 70C54.5538 70 70 54.5538 70 35.5C70 16.4462 54.5538 1 35.5 1C16.4462 1 1 16.4462 1 35.5C1 54.5538 16.4462 70 35.5 70Z" stroke="white"/>
<path fill-rule="evenodd" clip-rule="evenodd" d="M46.686 36.7121L50.4329 32.9653C50.6372 32.7596 50.8313 32.544 51.0144 32.3192C54.0967 28.5352 53.5278 22.969 49.7436 19.8868C46.1054 17.0891 40.9534 17.4376 37.7252 20.6998L34.1903 24.2345C32.1228 26.3046 32.1228 29.6581 34.1903 31.7281C34.8797 32.4134 35.993 32.4134 36.6824 31.7281L41.6842 26.7972C41.8222 26.5761 42.0073 26.3882 42.2264 26.2471C43.047 25.7184 44.1407 25.955 44.6694 26.7756C45.1981 27.5961 44.9615 28.6898 44.1409 29.2185L39.1391 34.2201C38.4683 34.924 38.492 36.0375 39.1921 36.7121C41.2622 38.7796 44.6159 38.7796 46.686 36.7121ZM34.1903 39.1688C34.8797 38.4835 35.993 38.4835 36.6824 39.1688C38.7499 41.2388 38.7499 44.5923 36.6824 46.6624L32.9354 50.4092C32.7315 50.6133 32.5176 50.8074 32.2946 50.9906C28.5237 54.0889 22.955 53.5438 19.8565 49.773C17.0772 46.1176 17.4561 40.9645 20.7402 37.7549L24.2751 34.2201C26.3452 32.1526 29.6988 32.1526 31.7689 34.2201C32.4542 34.9095 32.4542 36.0228 31.7689 36.7121L26.7671 41.7138C26.6076 41.8237 26.4672 41.9591 26.3516 42.1146C25.7693 42.898 25.9323 44.0051 26.7156 44.5874C27.499 45.1697 28.6061 45.0068 29.1885 44.2234L34.1903 39.1688Z" fill="white"/>
</svg>
