<svg width="78" height="78" viewBox="0 0 78 78" fill="none" xmlns="http://www.w3.org/2000/svg">
<path d="M39 77C59.9868 77 77 59.9868 77 39C77 18.0132 59.9868 1 39 1C18.0132 1 1 18.0132 1 39C1 59.9868 18.0132 77 39 77Z" stroke="white" stroke-width="2"/>
<path fill-rule="evenodd" clip-rule="evenodd" d="M26 52.9633L26.2039 26.9755C26.2591 24.7257 28.1368 22.9464 30.3979 23.0012C31.021 23.0164 31.6324 23.1728 32.1855 23.4586L57.7941 36.5286C59.7602 37.502 60.5611 39.877 59.5828 41.8333C59.1972 42.6045 58.5691 43.2294 57.7941 43.6131L31.9476 56.5478H31.9476C29.9457 57.575 27.4859 56.793 26.4536 54.8012C26.1589 54.2327 26.0035 53.6029 26 52.9633L26 52.9633Z" fill="white"/>
</svg>
