<svg width="121" height="72" viewBox="0 0 121 72" fill="none" xmlns="http://www.w3.org/2000/svg">
<path d="M85 71C104.33 71 120 55.33 120 36C120 16.67 104.33 1 85 1C65.67 1 50 16.67 50 36C50 55.33 65.67 71 85 71Z" stroke="white"/>
<path d="M92.1699 51H102.984L91.7153 16.4751H78.9868L67.7178 51H78.0537L79.8481 44.1333H90.3755L92.1699 51ZM85.0161 24.4424H85.2075L88.5332 36.9795H81.6904L85.0161 24.4424Z" fill="white"/>
<path d="M36 71C55.33 71 71 55.33 71 36C71 16.67 55.33 1 36 1C16.67 1 1 16.67 1 36C1 55.33 16.67 71 36 71Z" stroke="white"/>
<path d="M41.6006 45H46.3027L38.9492 23.8623H33.749L26.4102 45H30.9512L32.5625 39.873H39.9893L41.6006 45ZM36.2246 27.9053H36.3271L39.0371 36.5625H33.5146L36.2246 27.9053Z" fill="white"/>
</svg>
