<svg xmlns="http://www.w3.org/2000/svg" width="34" height="33" viewBox="0 0 34 33">
  <g id="_1-search" data-name="1-search" transform="translate(0 0)">
    <path id="Shape" d="M29.948,33a4.088,4.088,0,0,1-2.865-1.152L21.6,26.522a14.959,14.959,0,0,1-13.459.311,14.53,14.53,0,0,1-5.221-4.2,13.833,13.833,0,0,1,1.343-18.5,14.9,14.9,0,0,1,19.057-1.3,14.105,14.105,0,0,1,5.49,8.34,13.779,13.779,0,0,1-1.488,9.791l5.487,5.318a3.852,3.852,0,0,1,0,5.562A4.088,4.088,0,0,1,29.948,33ZM14.57,3.929A10.382,10.382,0,0,0,4.049,14.142a10,10,0,0,0,3.082,7.222,10.616,10.616,0,0,0,7.439,2.991A10.382,10.382,0,0,0,25.092,14.142,10.382,10.382,0,0,0,14.57,3.929Z"/>
  </g>
</svg>
