<svg xmlns="http://www.w3.org/2000/svg" viewBox="0 0 53 36"><defs><style>.cls-1{fill:#fff;fill-rule:evenodd;}</style></defs><title>Asset 1</title><g id="Layer_2" data-name="Layer 2"><g id="Layer_1-2" data-name="Layer 1"><path class="cls-1" d="M25.73.41a2.21,2.21,0,0,1,3.4,1.86V13.35L49.51.41A2.21,2.21,0,0,1,53,2.27V33.79A2.21,2.21,0,0,1,50.79,36a2.18,2.18,0,0,1-1.19-.35L29.22,22.56V33.79A2.23,2.23,0,0,1,27,36a2.15,2.15,0,0,1-1.18-.35L1,19.77a2.22,2.22,0,0,1-.67-3.06A2.13,2.13,0,0,1,1,16Z"/></g></g></svg>