<svg width="53" height="36" viewBox="0 0 53 36" fill="none" xmlns="http://www.w3.org/2000/svg">
<path fill-rule="evenodd" clip-rule="evenodd" d="M25.7271 0.411285C26.7536 -0.249256 28.1196 0.049877 28.7782 1.07942C29.0059 1.43525 29.1272 1.84898 29.1279 2.27175V13.3459L49.5102 0.411285C50.5034 -0.298583 51.8823 -0.0664904 52.5901 0.929678C52.8679 1.32072 53.0115 1.79173 52.9993 2.27175V33.7888C52.9973 35.012 52.0069 36.002 50.7874 36C50.3658 35.9993 49.9533 35.8776 49.5986 35.6493L29.2162 22.5596V33.7888C29.2142 35.012 28.2239 36.002 27.0043 36C26.5828 35.9993 26.1703 35.8776 25.8155 35.6493L1.01666 19.7689C-0.0100337 19.1087 -0.308715 17.7387 0.349541 16.709C0.526019 16.4329 0.761421 16.1996 1.03875 16.0259L25.7271 0.411285Z" fill="black"/>
</svg>
