<svg width="21" height="30" viewBox="0 0 21 30" fill="none" xmlns="http://www.w3.org/2000/svg">
<path fill-rule="evenodd" clip-rule="evenodd" d="M7.55921 30H13.7515V24.1773H7.55921V30ZM0 9.67093H5.98525C5.98525 8.55618 6.31916 7.48163 6.98698 6.44729C7.65479 5.41294 8.78785 4.8958 10.3862 4.89589C12.0111 4.89589 13.1302 5.31564 13.7433 6.15516C14.3564 6.99467 14.6629 7.92483 14.6627 8.94565C14.6627 9.83212 14.3874 10.6447 13.8369 11.3835C13.5339 11.8135 13.1347 12.2097 12.6393 12.5722L11.1316 13.7207C9.64503 14.8489 8.7228 15.8462 8.3649 16.7126C8.007 17.579 7.78674 19.1471 7.70412 21.4171H13.3166C13.3302 20.3426 13.4197 19.5501 13.5851 19.0397C13.8467 18.2337 14.3768 17.5285 15.1756 16.924L16.6417 15.816C18.1291 14.6877 19.1342 13.7609 19.6573 13.0356C20.5525 11.8403 21 10.3695 21 8.62319C21 5.77584 19.9679 3.62679 17.9038 2.17603C15.8397 0.725282 13.2475 -6.24543e-05 10.1273 0C7.75248 0 5.7505 0.510439 4.12141 1.53132C1.53942 3.1299 0.165608 5.8431 0 9.67093Z" fill="white"/>
</svg>
