<svg height='100px' width='100px'  fill="#f4ff4a" xmlns="http://www.w3.org/2000/svg" xmlns:xlink="http://www.w3.org/1999/xlink" version="1.1" x="0px" y="0px" viewBox="0 0 96 96" enable-background="new 0 0 96 96" xml:space="preserve"><g display="none"><g display="inline" opacity="0.2"><g><path fill="#000000" stroke="#000000" stroke-width="0.5" stroke-miterlimit="10" d="M90.594,84.536     c0,3.331-2.727,6.058-6.057,6.058H11.651c-3.33,0-6.057-2.727-6.057-6.058V11.65c0-3.331,2.727-6.057,6.057-6.057h72.887     c3.33,0,6.057,2.726,6.057,6.057V84.536z"></path><path fill="#000000" stroke="#000000" stroke-width="0.5" stroke-miterlimit="10" d="M20.739,94.594c-3.074,0-5.59-2.564-5.59-5.703     V7.295c0-3.136,2.516-5.701,5.59-5.701H75.28c3.074,0,5.588,2.565,5.588,5.701v81.596c0,3.139-2.514,5.703-5.588,5.703H20.739z"></path><path fill="#000000" stroke="#000000" stroke-width="0.5" stroke-miterlimit="10" d="M7.266,80.885     c-3.176,0-5.773-2.486-5.773-5.529V20.643c0-3.04,2.598-5.527,5.773-5.527h81.449c3.176,0,5.773,2.487,5.773,5.527v54.713     c0,3.043-2.598,5.529-5.773,5.529H7.266z"></path></g><circle fill="#000000" stroke="#000000" stroke-width="0.5" stroke-miterlimit="10" cx="48" cy="48" r="19.363"></circle><circle fill="#000000" stroke="#000000" stroke-width="0.5" stroke-miterlimit="10" cx="48" cy="48" r="46.5"></circle><line fill="#000000" stroke="#000000" stroke-width="0.5" stroke-miterlimit="10" x1="0.008" y1="0.008" x2="95.993" y2="95.992"></line><line fill="#000000" stroke="#000000" stroke-width="0.5" stroke-miterlimit="10" x1="95.993" y1="0.008" x2="0.008" y2="95.992"></line></g></g><g><g><path d="M68.199,44.165c2.942,0,5.375,2.205,5.745,5.049H89.75V34.443h-6.771v6.545h-1.5v-6.545h-7.057v6.545h-1.5v-6.545h-7.058    v6.545h-1.5v-6.545h-7.057v6.545h-1.5v-6.545H48.75v6.545h-1.5v-6.545h-7.057v6.545h-1.5v-6.545h-7.057v6.545h-1.5v-6.545h-7.057    v6.545h-1.5v-6.545h-7.058v6.545h-1.5v-6.545H6.25v14.771h56.202C62.823,46.37,65.255,44.165,68.199,44.165z"></path><path d="M68.199,45.665c-2.114,0-3.867,1.536-4.224,3.549c-0.044,0.244-0.076,0.493-0.076,0.75s0.032,0.506,0.076,0.75    c0.356,2.014,2.109,3.55,4.224,3.55c2.113,0,3.866-1.536,4.223-3.55c0.044-0.244,0.076-0.493,0.076-0.75s-0.032-0.506-0.076-0.75    C72.065,47.201,70.312,45.665,68.199,45.665z"></path><path d="M89.75,50.714H73.944c-0.37,2.845-2.803,5.05-5.745,5.05c-2.943,0-5.376-2.205-5.746-5.05H6.25v10.843h83.5V50.714z"></path></g></g></svg>