<svg xmlns="http://www.w3.org/2000/svg" width="23.3" height="23.292" viewBox="0 0 23.3 23.292">
  <g id="Triangle_Copy_2" data-name="Triangle Copy 2" transform="translate(-188.35 -154)">
    <path id="Triangle_Copy_2-2" data-name="Triangle Copy 2" d="M-10.817,5.367a3,3,0,0,0-5.367,0l-8.646,17.292A3,3,0,0,0-22.146,27H-4.854a3,3,0,0,0,2.683-4.342Z" transform="translate(186.5 181) rotate(-180)" fill="#9E4C01"/>
    <path id="Triangle_Copy_2-3" data-name="Triangle Copy 2" d="M-10.817,5.367a3,3,0,0,0-5.367,0l-8.646,17.292A3,3,0,0,0-22.146,27H-4.854a3,3,0,0,0,2.683-4.342Z" transform="translate(186.5 181) rotate(-180)" fill="none"/>
  </g>
</svg>
