<svg width="43" height="32" viewBox="0 0 43 32" fill="none" xmlns="http://www.w3.org/2000/svg">
<path fill-rule="evenodd" clip-rule="evenodd" d="M5.37501 32H37.625C40.5935 32 43 29.4717 43 26.3529V5.64706C43 2.52828 40.5935 0 37.625 0H5.37501C2.40649 0 8.10224e-06 2.52828 8.55047e-06 5.64706V13.1765C8.55047e-06 14.2161 0.802164 15.0588 1.79167 15.0588C2.78119 15.0588 3.58334 14.2161 3.58334 13.1765V5.64706C3.58334 4.60746 4.3855 3.7647 5.37501 3.7647H37.625C38.6145 3.7647 39.4167 4.60746 39.4167 5.64706V26.3529C39.4167 27.3925 38.6145 28.2353 37.625 28.2353H5.37501C4.3855 28.2353 3.58334 27.3925 3.58334 26.3529V25.8259C3.58252 25.3861 3.72832 24.9598 3.99542 24.6212L11.0008 15.7929L17.3433 21.12C18.7691 22.313 20.8201 22.1915 22.1092 20.8376L25.2088 17.5812L32.9129 24.0565C32.9413 24.0819 32.9704 24.1064 33.0002 24.13C33.7914 24.7544 34.9145 24.5868 35.5089 23.7556C36.1032 22.9244 35.9436 21.7444 35.1525 21.12L27.4483 14.6447C26.0226 13.4517 23.9716 13.5732 22.6825 14.9271L19.5829 18.1835L13.2404 12.8565C11.7163 11.5701 9.49209 11.8046 8.24168 13.3835L1.23626 22.2118C0.434952 23.2277 -0.00244253 24.5064 1.02678e-05 25.8259V26.3529C1.02678e-05 29.4717 2.40649 32 5.37501 32ZM31 10C31 8.34315 32.1193 7 33.5 7C34.8807 7 36 8.34315 36 10C36 11.6569 34.8807 13 33.5 13C32.1193 13 31 11.6569 31 10Z" fill="#0045E2"/>
</svg>
