<svg width="35" height="35" viewBox="0 0 35 35" fill="none" xmlns="http://www.w3.org/2000/svg">
<path fill-rule="evenodd" clip-rule="evenodd" d="M28.686 18.7121L32.4329 14.9653C32.6372 14.7596 32.8313 14.544 33.0144 14.3192C36.0967 10.5352 35.5278 4.96899 31.7436 1.88677C28.1054 -0.910882 22.9534 -0.562375 19.7252 2.69976L16.1903 6.2345C14.1228 8.30456 14.1228 11.6581 16.1903 13.7281C16.8797 14.4134 17.993 14.4134 18.6824 13.7281L23.6842 8.79718C23.8222 8.57608 24.0073 8.38822 24.2264 8.24707C25.047 7.71841 26.1407 7.95502 26.6694 8.77555C27.1981 9.59608 26.9615 10.6898 26.1409 11.2185L21.1391 16.2201C20.4683 16.924 20.492 18.0375 21.1921 18.7121C23.2622 20.7796 26.6159 20.7796 28.686 18.7121ZM16.1903 21.1688C16.8797 20.4835 17.993 20.4835 18.6824 21.1688C20.7499 23.2388 20.7499 26.5923 18.6824 28.6624L14.9354 32.4092C14.7315 32.6133 14.5176 32.8074 14.2946 32.9906C10.5237 36.0889 4.95496 35.5438 1.8565 31.773C-0.922752 28.1176 -0.543852 22.9645 2.74022 19.7549L6.27506 16.2201C8.34519 14.1526 11.6988 14.1526 13.7689 16.2201C14.4542 16.9095 14.4542 18.0228 13.7689 18.7121L8.76713 23.7138C8.6076 23.8237 8.46723 23.9591 8.35165 24.1146C7.76929 24.898 7.93225 26.0051 8.71563 26.5874C9.49901 27.1697 10.6061 27.0068 11.1885 26.2234L16.1903 21.1688Z" fill="#0045E2"/>
</svg>
