<svg xmlns="http://www.w3.org/2000/svg" width="25.997" height="25" viewBox="0 0 25.997 25">
  <g id="links" transform="translate(-0.003 0)">
    <path style="fill: white" id="Links-2" data-name="Links" d="M6.455,25c-.107,0-.215,0-.322-.008a6.672,6.672,0,0,1-4.754-2.3,6.327,6.327,0,0,1,.657-8.584l2.625-2.525a4.052,4.052,0,0,1,5.567,0,1.228,1.228,0,0,1,0,1.78L6.512,16.939a1.241,1.241,0,0,0-.544,1.276,1.287,1.287,0,0,0,1,.994,1.366,1.366,0,0,0,.293.032,1.336,1.336,0,0,0,1.054-.51l3.716-3.61a1.349,1.349,0,0,1,1.85,0,3.684,3.684,0,0,1,0,5.352L11.1,23.15A6.652,6.652,0,0,1,6.455,25ZM18.527,14.474a4,4,0,0,1-2.784-1.108,1.229,1.229,0,0,1-.04-1.78l3.716-3.572A1.237,1.237,0,0,0,20,6.707a1.283,1.283,0,0,0-1.052-1,1.364,1.364,0,0,0-.237-.021,1.318,1.318,0,0,0-1.113.594L13.878,9.806a1.349,1.349,0,0,1-1.85,0,3.684,3.684,0,0,1,0-5.352l2.625-2.525a6.964,6.964,0,0,1,8.928-.581,6.249,6.249,0,0,1,2.41,4.562,6.192,6.192,0,0,1-1.9,4.78L21.31,13.366A4,4,0,0,1,18.527,14.474Z"/>
  </g>
</svg>
