<svg id="share" xmlns="http://www.w3.org/2000/svg" width="31" height="28" viewBox="0 0 31 28">
  <path style="fill: #f4ff4a" id="Share-2" data-name="Share" d="M31,23.638a4.252,4.252,0,0,1-3.426,4.333,3.937,3.937,0,0,1-4.2-3.328l-14.3-4.55a4.753,4.753,0,0,1-5.562,1.753,5.849,5.849,0,0,1-3.5-5.25,6.077,6.077,0,0,1,2.936-5.688,4.664,4.664,0,0,1,5.7.986L16.89,5.407A4.729,4.729,0,0,1,18.609.677a3.479,3.479,0,0,1,4.465.287,4.841,4.841,0,0,1,1.246,4.92,3.948,3.948,0,0,1-3.638,2.98,3.576,3.576,0,0,1-2.373-.96l-8.228,6.471a6.689,6.689,0,0,1,.284,1.876,6.74,6.74,0,0,1-.1,1.152l13.413,4.284a3.732,3.732,0,0,1,4.332-2.326A4.344,4.344,0,0,1,31,23.638Z"/>
</svg>
