<?xml version="1.0" encoding="UTF-8" standalone="no"?>
<!-- Created with Inkscape (http://www.inkscape.org/) -->

<svg
   xmlns:dc="http://purl.org/dc/elements/1.1/"
   xmlns:cc="http://creativecommons.org/ns#"
   xmlns:rdf="http://www.w3.org/1999/02/22-rdf-syntax-ns#"
   xmlns:svg="http://www.w3.org/2000/svg"
   xmlns="http://www.w3.org/2000/svg"
   version="1.0"
   width="600"
   height="600"
   id="svg2">
  <defs
     id="defs4" />
  <metadata
     id="metadata7">
    <rdf:RDF>
      <cc:Work
         rdf:about="">
        <dc:format>image/svg+xml</dc:format>
        <dc:type
           rdf:resource="http://purl.org/dc/dcmitype/StillImage" />
        <dc:title></dc:title>
      </cc:Work>
    </rdf:RDF>
  </metadata>
  <g
     id="layer1">
    <path
       d="M 0,50 C 0,22.38574 22.3853,0 50,0 l 500,0 c 27.6143,0 50,22.38574 50,50 l 0,500 c 0,27.6152 -22.3857,50 -50,50 L 50,600 C 22.3853,600 0,577.6152 0,550 L 0,50 0,50 z"
       id="path5" />
    <path
       d=""
       id="path7" />
    <path
       d="m 587.49999,299.99998 c 0,158.7 -128.8,287.50003 -287.5,287.50003 -158.7,0 -287.500003,-128.80003 -287.500003,-287.50003 0,-158.7 128.800003,-287.499999 287.500003,-287.499999 158.7,0 287.5,128.799999 287.5,287.499999 z"
       id="circle11"
       style="fill:#ffffff" />
    <path
       d=""
       id="path1446"
       style="fill:#ffffff" />
    <g
       id="text1327"
       style="font-size:450px;font-style:normal;font-variant:normal;font-weight:normal;font-stretch:normal;text-align:center;line-height:100%;writing-mode:lr-tb;text-anchor:middle;font-family:Roadgeek 2005 Series C">
      <path
         d="m 282.53516,368.39374 c -1.9e-4,12.30476 -2.17457,23.78088 -6.52314,34.4284 -4.34893,10.64762 -10.34791,19.87155 -17.99697,27.67182 -7.64939,7.8003 -16.50024,14.02588 -26.55259,18.67676 -10.05261,4.65087 -20.92907,6.97631 -32.62939,6.97631 -13.20199,0 -25.0512,-2.54974 -35.54764,-7.64923 -10.49658,-5.09948 -19.34514,-11.99797 -26.54571,-20.69549 -7.20066,-8.69748 -12.75104,-18.74767 -16.65116,-30.15061 -3.90016,-11.40283 -5.85024,-23.25203 -5.85022,-35.54764 l 42.29737,0 c -6e-5,6.29892 0.82391,12.52221 2.47192,18.6699 1.64788,6.14783 4.19763,11.69821 7.64923,16.65115 3.45146,4.95305 7.8025,8.92872 13.05313,11.92703 5.25046,2.99839 11.62481,4.49757 19.12308,4.49753 5.70363,4e-5 11.18076,-1.1993 16.43143,-3.59802 5.25042,-2.39864 9.75023,-5.69911 13.49945,-9.90143 3.74894,-4.20222 6.74729,-9.07739 8.99505,-14.62555 2.24748,-5.54802 3.37129,-11.325 3.37143,-17.33093 -1.4e-4,-8.69742 -1.79915,-16.41989 -5.39703,-23.16742 -3.59816,-6.74733 -9.89698,-13.57258 -18.89649,-20.47577 -1.50158,-1.50134 -2.10125,-2.3276 -1.79901,-2.47879 0.30201,-0.15093 -0.5975,-0.97491 -2.69851,-2.47192 -2.10125,-1.49676 -6.52782,-4.42187 -13.27973,-8.77533 -6.75211,-4.35319 -17.77734,-11.77582 -33.07571,-22.26792 -12.29559,-8.40437 -21.51952,-18.23255 -27.67182,-29.48456 -6.15238,-11.25162 -9.22854,-23.62496 -9.22851,-37.12005 -3e-5,-10.80299 1.95004,-20.92871 5.85022,-30.3772 3.9001,-9.44797 9.37495,-17.7724 16.42456,-24.9733 7.0495,-7.20033 15.22515,-12.82624 24.52698,-16.87774 9.30166,-4.05091 19.34957,-6.07651 30.14373,-6.07682 10.80311,3.1e-4 20.78006,1.95038 29.93088,5.85022 9.15055,3.90045 17.09961,9.30205 23.8472,16.20484 6.74727,6.90335 12.14658,15.15453 16.19797,24.75357 4.05102,9.59955 6.22769,20.09835 6.53,31.49643 l -41.40473,0 c -0.59523,-10.50086 -4.19325,-18.90082 -10.79407,-25.19989 -6.60107,-6.29857 -14.70348,-9.44798 -24.30725,-9.44824 -9.89695,2.6e-4 -18.29461,3.30073 -25.19302,9.90142 -6.89858,6.6012 -10.34782,14.8501 -10.34775,24.74671 -7e-5,7.49839 1.95,13.79721 5.85022,18.89648 3.90006,5.09969 11.39823,10.79885 22.49451,17.09748 29.10448,16.8001 50.33096,33.89984 63.6795,51.29928 13.34821,17.39972 20.0224,37.04921 20.02259,58.94852 z"
         id="path3114" />
      <path
         d="m 318.14459,450.75 c 0.59508,-10.19896 1.26799,-19.04982 2.01874,-26.55258 0.75071,-7.50271 1.65022,-14.25243 2.69852,-20.24918 1.04825,-5.99665 2.39865,-11.77133 4.05121,-17.32406 1.65249,-5.55261 3.6781,-11.62941 6.07681,-18.23044 12.30464,-31.49403 28.50488,-56.54283 48.60077,-75.14649 1.8035,-1.5013 3.68033,-3.07601 5.63049,-4.72412 1.94998,-1.64778 4.34866,-3.52232 7.19605,-5.62362 2.84719,-2.10097 6.29643,-4.65071 10.34774,-7.64924 4.0511,-2.99817 9.07505,-6.59848 15.07187,-10.80093 9.90588,-6.90288 16.58235,-12.7531 20.02945,-17.55066 3.44682,-4.79715 5.1703,-10.94491 5.17044,-18.4433 -1.4e-4,-5.7035 -1.12395,-11.10511 -3.37143,-16.20483 -2.24776,-5.09924 -5.24611,-9.59906 -8.99505,-13.49945 -3.74922,-3.89989 -8.24903,-6.97606 -13.49945,-9.22852 -5.25067,-2.25193 -10.7278,-3.37803 -16.43143,-3.37829 -5.9968,2.6e-4 -11.54489,1.12636 -16.64429,3.37829 -5.09957,2.25246 -9.52614,5.32863 -13.27972,9.22852 -3.75373,3.90039 -6.75437,8.40021 -9.00192,13.49945 -2.24769,5.09972 -3.37149,10.50133 -3.37143,16.20483 l -42.29737,0 c 0.29295,-11.7002 2.6161,-22.72543 6.96945,-33.07571 4.35331,-10.34977 10.27905,-19.35169 17.77726,-27.00577 7.49812,-7.65352 16.34668,-13.65479 26.54571,-18.00384 10.1989,-4.34845 21.29965,-6.52283 33.30231,-6.52314 11.70032,3.1e-4 22.57678,2.25022 32.62939,6.74973 10.05235,4.50011 18.9032,10.57463 26.55259,18.22357 7.64906,7.64951 13.64804,16.57589 17.99697,26.77918 4.34857,10.20379 6.52295,21.15578 6.52314,32.85598 -1.9e-4,23.99617 -8.55121,43.79443 -25.65308,59.39484 -1.50162,1.1995 -3.07633,2.32331 -4.72412,3.37143 -1.6481,1.04844 -3.22281,2.32331 -4.72412,3.82461 l -10.35462,7.64924 -10.79406,7.20977 -11.70044,8.54187 c -4.79748,3.59815 -9.5216,7.87366 -14.17237,12.82654 -4.65097,4.95312 -9.15079,10.35473 -13.49945,16.20484 -4.34884,5.85031 -8.17345,12.00036 -11.47384,18.45016 -3.30056,6.44997 -6.00365,12.82432 -8.10929,19.12308 -1.7945,3.90021 -3.06708,7.42498 -3.81775,10.57434 -0.7508,3.14946 -1.72583,7.42497 -2.92511,12.82654 l 121.94825,0 0,42.29736 z"
         id="path3116" />
    </g>
    <path
       d="m 587.00096,299.99995 c 0,158.4245 -128.57644,287.00091 -287.00094,287.00091 -158.42447,0 -287.000876,-128.57641 -287.000876,-287.00091 0,-158.4245 128.576406,-287.000906 287.000876,-287.000906 158.4245,0 287.00094,128.576406 287.00094,287.000906 z"
       id="circle1313"
       style="fill:none;stroke:#000000;stroke-width:0.99826401;stroke-miterlimit:4;stroke-opacity:1" />
    <path
       d=""
       id="path1315"
       style="fill:none;stroke:#000000;stroke-width:0.99826401;stroke-miterlimit:4;stroke-opacity:1;stroke-dasharray:none" />
  </g>
</svg>
