<?xml version="1.0" encoding="UTF-8" standalone="no"?>
<!-- Created with Inkscape (http://www.inkscape.org/) -->

<svg
   xmlns:dc="http://purl.org/dc/elements/1.1/"
   xmlns:cc="http://creativecommons.org/ns#"
   xmlns:rdf="http://www.w3.org/1999/02/22-rdf-syntax-ns#"
   xmlns:svg="http://www.w3.org/2000/svg"
   xmlns="http://www.w3.org/2000/svg"
   version="1.0"
   width="600"
   height="600"
   id="svg2">
  <defs
     id="defs4" />
  <metadata
     id="metadata7">
    <rdf:RDF>
      <cc:Work
         rdf:about="">
        <dc:format>image/svg+xml</dc:format>
        <dc:type
           rdf:resource="http://purl.org/dc/dcmitype/StillImage" />
        <dc:title></dc:title>
      </cc:Work>
    </rdf:RDF>
  </metadata>
  <g
     id="layer1">
    <path
       d="M 0,50 C 0,22.38574 22.3853,0 50,0 l 500,0 c 27.6143,0 50,22.38574 50,50 l 0,500 c 0,27.6152 -22.3857,50 -50,50 L 50,600 C 22.3853,600 0,577.6152 0,550 L 0,50 0,50 z"
       id="path5" />
    <path
       d=""
       id="path7" />
    <path
       d="m 587.49999,299.99998 c 0,158.7 -128.8,287.50003 -287.5,287.50003 -158.7,0 -287.500003,-128.80003 -287.500003,-287.50003 0,-158.7 128.800003,-287.499999 287.500003,-287.499999 158.7,0 287.5,128.799999 287.5,287.499999 z"
       id="circle11"
       style="fill:#ffffff" />
    <path
       d=""
       id="path1446"
       style="fill:#ffffff" />
    <g
       id="text1327"
       style="font-size:450px;font-style:normal;font-variant:normal;font-weight:normal;font-stretch:normal;text-align:center;line-height:100%;writing-mode:lr-tb;text-anchor:middle;font-family:Roadgeek 2005 Series C">
      <path
         d="m 322.52539,368.39374 c -1.9e-4,12.30476 -2.17456,23.78088 -6.52313,34.4284 -4.34893,10.64762 -10.34792,19.87155 -17.99698,27.67182 -7.64939,7.8003 -16.50024,14.02588 -26.55258,18.67676 -10.05262,4.65087 -20.92907,6.97631 -32.6294,6.97631 -13.20199,0 -25.05119,-2.54974 -35.54763,-7.64923 -10.49658,-5.09948 -19.34515,-11.99797 -26.54572,-20.69549 -7.20066,-8.69748 -12.75103,-18.74767 -16.65115,-30.15061 -3.90017,-11.40283 -5.85024,-23.25203 -5.85022,-35.54764 l 42.29736,0 c -6e-5,6.29892 0.82391,12.52221 2.47192,18.6699 1.64789,6.14783 4.19763,11.69821 7.64923,16.65115 3.45147,4.95305 7.80251,8.92872 13.05314,11.92703 5.25046,2.99839 11.62481,4.49757 19.12307,4.49753 5.70363,4e-5 11.18077,-1.1993 16.43143,-3.59802 5.25043,-2.39864 9.75024,-5.69911 13.49945,-9.90143 3.74895,-4.20222 6.7473,-9.07739 8.99506,-14.62555 2.24747,-5.54802 3.37128,-11.325 3.37143,-17.33093 -1.5e-4,-8.69742 -1.79916,-16.41989 -5.39704,-23.16742 -3.59816,-6.74733 -9.89698,-13.57258 -18.89648,-20.47577 -1.50159,-1.50134 -2.10126,-2.3276 -1.79901,-2.47879 0.302,-0.15093 -0.5975,-0.97491 -2.69852,-2.47192 -2.10125,-1.49676 -6.52782,-4.42187 -13.27972,-8.77533 -6.75211,-4.35319 -17.77734,-11.77582 -33.07572,-22.26792 -12.29559,-8.40437 -21.51952,-18.23255 -27.67181,-29.48456 -6.15238,-11.25162 -9.22855,-23.62496 -9.22852,-37.12005 -3e-5,-10.80299 1.95004,-20.92871 5.85022,-30.3772 3.90011,-9.44797 9.37495,-17.7724 16.42456,-24.9733 7.0495,-7.20033 15.22515,-12.82624 24.52698,-16.87774 9.30167,-4.05091 19.34957,-6.07651 30.14374,-6.07682 10.8031,3.1e-4 20.78005,1.95038 29.93088,5.85022 9.15054,3.90045 17.0996,9.30205 23.84719,16.20484 6.74727,6.90335 12.14659,15.15453 16.19797,24.75357 4.05103,9.59955 6.22769,20.09835 6.53,31.49643 l -41.40472,0 c -0.59524,-10.50086 -4.19326,-18.90082 -10.79407,-25.19989 -6.60108,-6.29857 -14.70349,-9.44798 -24.30725,-9.44824 -9.89695,2.6e-4 -18.29462,3.30073 -25.19303,9.90142 -6.89857,6.6012 -10.34782,14.8501 -10.34774,24.74671 -8e-5,7.49839 1.94999,13.79721 5.85022,18.89648 3.90006,5.09969 11.39822,10.79885 22.4945,17.09748 29.10449,16.8001 50.33097,33.89984 63.67951,51.29928 13.34821,17.39972 20.02239,37.04921 20.02258,58.94852 z"
         id="path3109" />
      <path
         d="m 386.47955,450.75 0,-247.49451 -18.89648,0 0,-32.84912 c 8.69747,-0.60397 15.6715,-2.7051 20.92209,-6.3034 5.25049,-3.59774 9.52371,-8.55073 12.81967,-14.85901 l 28.81164,0 0,301.50604 z"
         id="path3111" />
    </g>
    <path
       d="m 587.00096,299.99995 c 0,158.4245 -128.57644,287.00091 -287.00094,287.00091 -158.42447,0 -287.000876,-128.57641 -287.000876,-287.00091 0,-158.4245 128.576406,-287.000906 287.000876,-287.000906 158.4245,0 287.00094,128.576406 287.00094,287.000906 z"
       id="circle1313"
       style="fill:none;stroke:#000000;stroke-width:0.99826401;stroke-miterlimit:4;stroke-opacity:1" />
    <path
       d=""
       id="path1315"
       style="fill:none;stroke:#000000;stroke-width:0.99826401;stroke-miterlimit:4;stroke-opacity:1;stroke-dasharray:none" />
  </g>
</svg>
