<svg width="73" height="73" viewBox="0 0 73 73" fill="none" xmlns="http://www.w3.org/2000/svg">
<g filter="url(#filter0_d)">
<path d="M36.5 71C55.5538 71 71 55.5538 71 36.5C71 17.4462 55.5538 2 36.5 2C17.4462 2 2 17.4462 2 36.5C2 55.5538 17.4462 71 36.5 71Z" fill="#0045E2"/>
</g>
<path d="M43.5571 56C51.5537 56 56.7295 51.6782 56.7295 45.1309C56.7295 40.188 52.5112 36.3838 47.4648 36.2544V36.0474C51.7866 35.5039 55.0474 32.269 55.0474 27.9731C55.0474 22.1504 50.5703 18.6567 42.936 18.6567H24.5879V56H43.5571ZM35.5605 26.1875H39.96C42.729 26.1875 44.3853 27.585 44.3853 29.8882C44.3853 32.1396 42.6255 33.6147 39.8047 33.6147H35.5605V26.1875ZM35.5605 48.4692V39.9033H40.3223C43.6089 39.9033 45.5757 41.4561 45.5757 44.1216C45.5757 46.9424 43.6348 48.4692 40.2446 48.4692H35.5605Z" fill="white"/>
<defs>
<filter id="filter0_d" x="0" y="0" width="73" height="73" filterUnits="userSpaceOnUse" color-interpolation-filters="sRGB">
<feFlood flood-opacity="0" result="BackgroundImageFix"/>
<feColorMatrix in="SourceAlpha" type="matrix" values="0 0 0 0 0 0 0 0 0 0 0 0 0 0 0 0 0 0 127 0"/>
<feOffset/>
<feGaussianBlur stdDeviation="1"/>
<feColorMatrix type="matrix" values="0 0 0 0 0 0 0 0 0 0 0 0 0 0 0 0 0 0 0.5 0"/>
<feBlend mode="normal" in2="BackgroundImageFix" result="effect1_dropShadow"/>
<feBlend mode="normal" in="SourceGraphic" in2="effect1_dropShadow" result="shape"/>
</filter>
</defs>
</svg>
