<svg id="Layer_1" data-name="Layer 1" xmlns="http://www.w3.org/2000/svg" viewBox="0 0 69 69">
  <title>bold-font-light01</title>
  <path d="M36.5,71A34.5,34.5,0,1,0,2,36.5,34.5,34.5,0,0,0,36.5,71Z" transform="translate(-2 -2)" fill="#0045e2"/>
  <path d="M43.56,56c8,0,13.17-4.32,13.17-10.87,0-4.94-4.22-8.75-9.27-8.88v-.2c4.33-.55,7.59-3.78,7.59-8.08,0-5.82-4.48-9.31-12.11-9.31H24.59V56Zm-8-29.81H40c2.77,0,4.43,1.39,4.43,3.7s-1.76,3.72-4.59,3.72H35.56Zm0,22.28V39.9h4.76c3.29,0,5.26,1.56,5.26,4.22,0,2.82-1.95,4.35-5.34,4.35Z" transform="translate(-2 -2)" fill="#fff"/>
</svg>
