<svg id="Layer_1" data-name="Layer 1" xmlns="http://www.w3.org/2000/svg" viewBox="0 0 130 65">
  <title>color-light01</title>
  <g>
    <path d="M33.5,0h0A32.5,32.5,0,0,1,66,32.5h0A32.5,32.5,0,0,1,33.5,65h0A32.5,32.5,0,0,1,1,32.5H1A32.5,32.5,0,0,1,33.5,0Z" transform="translate(-1)" fill="#fff"/>
    <path d="M33.5.5h0a32,32,0,0,1,32,32h0a32,32,0,0,1-32,32h0a32,32,0,0,1-32-32h0A32,32,0,0,1,33.5.5Z" transform="translate(-1)" fill="none" stroke="#ececec"/>
  </g>
  <path d="M66.5,0h0A32.5,32.5,0,0,1,99,32.5h0A32.5,32.5,0,0,1,66.5,65h0A32.5,32.5,0,0,1,34,32.5h0A32.5,32.5,0,0,1,66.5,0Z" transform="translate(-1)" fill="#fcf2dc"/>
  <path d="M98.5,0h0A32.5,32.5,0,0,1,131,32.5h0A32.5,32.5,0,0,1,98.5,65h0A32.5,32.5,0,0,1,66,32.5h0A32.5,32.5,0,0,1,98.5,0Z" transform="translate(-1)"/>
</svg>
