<svg id="Layer_1" data-name="Layer 1" xmlns="http://www.w3.org/2000/svg" viewBox="0 0 69 69">
  <title>link-light01</title>
  <g>
    <circle cx="34.5" cy="34.5" r="34" fill="#fff"/>
    <path d="M36.5,3A33.5,33.5,0,1,1,3,36.5,33.54,33.54,0,0,1,36.5,3m0-1A34.5,34.5,0,1,0,71,36.5,34.5,34.5,0,0,0,36.5,2Z" transform="translate(-2 -2)" fill="#ececec"/>
  </g>
  <path d="M47.69,37.71,51.43,34c.21-.21.4-.43.58-.65a8.82,8.82,0,0,0-1.27-12.43,9.09,9.09,0,0,0-12,.81l-3.54,3.53a5.31,5.31,0,0,0,0,7.5,1.77,1.77,0,0,0,2.49,0l5-4.93a1.8,1.8,0,0,1,.55-.55,1.77,1.77,0,0,1,1.91,3l-5,5a1.77,1.77,0,0,0,0,2.49A5.31,5.31,0,0,0,47.69,37.71Zm-12.5,2.46a1.76,1.76,0,0,1,2.49,0,5.29,5.29,0,0,1,0,7.49l-3.74,3.75c-.21.2-.42.4-.65.58a8.83,8.83,0,0,1-12.43-1.22,9.11,9.11,0,0,1,.88-12l3.54-3.53a5.29,5.29,0,0,1,7.49,0,1.77,1.77,0,0,1,0,2.49l-5,5a2,2,0,0,0-.42.4,1.77,1.77,0,1,0,2.84,2.11Z" transform="translate(-2 -2)" fill="#0045e2" fill-rule="evenodd"/>
</svg>
