<svg id="Layer_1" data-name="Layer 1" xmlns="http://www.w3.org/2000/svg" viewBox="0 0 69 69">
  <title>reader-light01</title>
  <g>
    <circle cx="34.5" cy="34.5" r="34" fill="#fff"/>
    <path d="M34.5,1A33.5,33.5,0,1,1,1,34.5,33.54,33.54,0,0,1,34.5,1m0-1A34.5,34.5,0,1,0,69,34.5,34.5,34.5,0,0,0,34.5,0Z" fill="#ececec"/>
  </g>
  <path d="M18.38,51H50.63A5.52,5.52,0,0,0,56,45.35V24.65A5.52,5.52,0,0,0,50.63,19H18.38A5.52,5.52,0,0,0,13,24.65v7.53a1.79,1.79,0,1,0,3.58,0V24.65a1.85,1.85,0,0,1,1.8-1.89H50.63a1.85,1.85,0,0,1,1.79,1.89v20.7a1.85,1.85,0,0,1-1.79,1.89H18.38a1.85,1.85,0,0,1-1.8-1.89v-.52A2,2,0,0,1,17,43.62l7-8.83,6.34,5.33a3.47,3.47,0,0,0,4.77-.28l3.1-3.26,7.7,6.48.09.07a1.74,1.74,0,0,0,2.51-.37,2,2,0,0,0-.36-2.64l-7.7-6.48a3.46,3.46,0,0,0-4.77.29l-3.1,3.25-6.34-5.32a3.46,3.46,0,0,0-5,.52l-7,8.83A5.87,5.87,0,0,0,13,44.83v.52A5.52,5.52,0,0,0,18.38,51ZM44,29a2.78,2.78,0,0,1,2.5-3A2.78,2.78,0,0,1,49,29a2.78,2.78,0,0,1-2.5,3A2.78,2.78,0,0,1,44,29Z" fill="#0045e2" fill-rule="evenodd"/>
</svg>
