<svg id="Layer_1" data-name="Layer 1" xmlns="http://www.w3.org/2000/svg" viewBox="0 0 111 71">
  <title>text-size-light01</title>
  <path d="M78,73A35,35,0,1,0,43,38,35,35,0,0,0,78,73Z" transform="translate(-2 -2)" fill="#fff"/>
  <path d="M83.17,55H94L82.72,20.48H70L58.72,55H69.05l1.8-6.87H81.38ZM76,28.44h.19L79.53,41H72.69Z" transform="translate(-2 -2)"/>
  <g>
    <circle cx="35" cy="35" r="34.5" fill="#fff"/>
    <path d="M37,3A34,34,0,1,1,3,37,34,34,0,0,1,37,3m0-1A35,35,0,1,0,72,37,35,35,0,0,0,37,2Z" transform="translate(-2 -2)" fill="#ececec"/>
  </g>
  <path d="M40.6,48h4.7L38,26.86h-5.2L25.41,48H30l1.61-5.13H39ZM35.22,30.91h.11L38,39.56H32.51Z" transform="translate(-2 -2)"/>
</svg>
