<svg id="Layer_1" data-name="Layer 1" xmlns="http://www.w3.org/2000/svg" viewBox="0 0 69 69">
  <title>title-light01</title>
  <g>
    <circle cx="34.5" cy="34.5" r="34" fill="#fff"/>
    <path d="M36.5,3A33.5,33.5,0,1,1,3,36.5,33.54,33.54,0,0,1,36.5,3m0-1A34.5,34.5,0,1,0,71,36.5,34.5,34.5,0,0,0,36.5,2Z" transform="translate(-2 -2)" fill="#ececec"/>
  </g>
  <g>
    <circle cx="34.5" cy="34.5" r="34" fill="#fff"/>
    <path d="M36.5,3A33.5,33.5,0,1,1,3,36.5,33.54,33.54,0,0,1,36.5,3m0-1A34.5,34.5,0,1,0,71,36.5,34.5,34.5,0,0,0,36.5,2Z" transform="translate(-2 -2)" fill="#ececec"/>
  </g>
  <path d="M54.68,56V18.66h-11V32.84H30.56V18.66h-11V56h11V41.56H43.71V56Z" transform="translate(-2 -2)"/>
</svg>
